<?xml version="1.0" encoding="UTF-8"?>
<svg width="447px" height="73px" viewBox="0 0 447 73" version="1.1" xmlns="http://www.w3.org/2000/svg" xmlns:xlink="http://www.w3.org/1999/xlink">
    <title>Group 4</title>
    <g id="Home-Page" stroke="none" stroke-width="1" fill="none" fill-rule="evenodd">
        <g id="Desktop-HD" transform="translate(-47.000000, -26.000000)">
            <g id="Group-4" transform="translate(47.000000, 26.000000)">
                <g id="Group">
                    <rect id="Rectangle" fill="#1C3156" x="0" y="0" width="72" height="73"></rect>
                    <polygon id="E" fill="#FFFFFF" fill-rule="nonzero" points="37.3818716 41.4324324 37.3818716 34.1403243 33.6246606 34.1403243 33.6246606 37.6916757 20.1652844 37.6916757 20.1652844 26.6114595 34.861211 26.6114595 34.861211 22.8707027 20.1652844 22.8707027 20.1652844 12.0272432 32.9588257 12.0272432 32.9588257 15.5785946 36.7160367 15.5785946 36.7160367 8.28648649 13.5544954 8.28648649 13.5544954 12.0272432 16.2178349 12.0272432 16.2178349 37.6916757 13.5544954 37.6916757 13.5544954 41.4324324"></polygon>
                    <polygon id="H" fill="#FFFFFF" fill-rule="nonzero" points="41.5776881 63.7927928 41.5776881 60.052036 37.7729174 60.052036 37.7729174 48.9718198 55.7504587 48.9718198 55.7504587 60.052036 51.9456881 60.052036 51.9456881 63.7927928 63.4551193 63.7927928 63.4551193 60.052036 59.6979083 60.052036 59.6979083 34.3876036 63.4551193 34.3876036 63.4551193 30.6468468 51.9456881 30.6468468 51.9456881 34.3876036 55.7504587 34.3876036 55.7504587 45.2310631 37.7729174 45.2310631 37.7729174 34.3876036 41.5776881 34.3876036 41.5776881 30.6468468 30.0682569 30.6468468 30.0682569 34.3876036 33.8254679 34.3876036 33.8254679 60.052036 30.0682569 60.052036 30.0682569 63.7927928"></polygon>
                </g>
                <g id="Group-3" transform="translate(91.000000, 0.000000)">
                    <path d="M19.7808479,48.6666667 L19.7808479,42.5899099 L18.7074112,42.5899099 L18.7074112,47.5938626 L4.13458217,47.5938626 L4.13458217,35.2775788 L17.6882632,35.2775788 L17.6882632,34.2047748 L4.13458217,34.2047748 L4.13458217,22.1178491 L18.154653,22.1178491 L18.154653,27.1218018 L19.2280897,27.1218018 L19.2280897,21.045045 L0,21.045045 L0,22.1178491 L3.02906572,22.1178491 L3.02906572,47.5938626 L0,47.5938626 L0,48.6666667 L19.7808479,48.6666667 Z M29.7989739,48.6666667 L29.7989739,47.5938626 L26.5249918,47.5938626 L26.5249918,19.0720721 L22.5933756,19.0720721 L22.5933756,20.1448761 L25.4194754,20.1448761 L25.4194754,47.5938626 L22.5446391,47.5938626 L22.5446391,48.6666667 L29.7989739,48.6666667 Z M39.817254,48.6666667 L39.817254,47.5938626 L36.543272,47.5938626 L36.543272,19.0720721 L32.6116557,19.0720721 L32.6116557,20.1448761 L35.4377555,20.1448761 L35.4377555,47.5938626 L32.5629192,47.5938626 L32.5629192,48.6666667 L39.817254,48.6666667 Z M46.2833222,29.8223086 C46.5551773,29.8223086 46.7968034,29.7206799 47.0082005,29.5174226 C47.2195976,29.3141653 47.3252962,29.0672354 47.3252962,28.7766329 C47.3252962,28.4864414 47.2195976,28.2383812 47.0082005,28.0324521 C46.7968034,27.8265231 46.5551773,27.7235586 46.2833222,27.7235586 C46.0114672,27.7235586 45.7698411,27.8265231 45.558444,28.0324521 C45.3470469,28.2383812 45.2413483,28.4864414 45.2413483,28.7766329 C45.2413483,29.0672354 45.3470469,29.3141653 45.558444,29.5174226 C45.7698411,29.7206799 46.0114672,29.8223086 46.2833222,29.8223086 Z M49.8355342,48.6666667 L49.8355342,47.5938626 L46.8280605,47.5938626 L46.8280605,33.8693694 L42.5811994,33.8693694 L42.5811994,34.9421734 L45.7225441,34.9421734 L45.7225441,47.5938626 L42.5811994,47.5938626 L42.5811994,48.6666667 L49.8355342,48.6666667 Z M60.3417962,48.927469 C61.4033058,48.927469 62.4105267,48.7288359 63.3634589,48.3315695 C64.316391,47.9343032 65.1482017,47.3805349 65.8588908,46.6702646 C66.5486048,45.9809572 67.0974559,45.1751211 67.5054441,44.2527562 C67.9134323,43.3303913 68.1174264,42.328902 68.1174264,41.2482883 C68.1174264,40.196036 67.9129182,39.1963964 67.5039018,38.2493694 C67.0948854,37.3023423 66.5473709,36.4736937 65.8613585,35.7634234 C65.1490242,35.0794595 64.3158769,34.5336036 63.3619166,34.1258559 C62.4079562,33.7181081 61.4010438,33.5142342 60.3411793,33.5142342 C59.2549929,33.5142342 58.2473607,33.7181081 57.3182827,34.1258559 C56.3892047,34.5336036 55.5796031,35.0794595 54.8894779,35.7634234 C54.1763211,36.4736937 53.6216093,37.3023423 53.2253425,38.2493694 C52.8290757,39.1963964 52.6309423,40.196036 52.6309423,41.2482883 C52.6309423,42.3293131 52.8292813,43.3314189 53.2259594,44.2546059 C53.5865758,45.0938667 54.0784784,45.8349545 54.7016672,46.4778692 L54.8925625,46.6677984 C55.58022,47.3797128 56.3883822,47.9343032 57.3170489,48.3315695 C58.2457156,48.7288359 59.2539647,48.927469 60.3417962,48.927469 Z M60.3251394,47.8386346 C59.3981178,47.8386346 58.5380317,47.6679519 57.7448813,47.3265864 C56.9517308,46.985221 56.2623253,46.5095495 55.6766648,45.8995721 C55.0663276,45.3142568 54.5903756,44.6253604 54.2488089,43.8328829 C53.9072421,43.0404054 53.7364588,42.1807235 53.7364588,41.2538373 C53.7364588,40.3516132 53.9072421,39.4981996 54.2488089,38.6935966 C54.5903756,37.8889935 55.0663276,37.1819088 55.6766648,36.5723423 C56.2623253,35.9631869 56.951628,35.4879265 57.7445728,35.1465611 C58.5375176,34.8051957 59.3977065,34.634513 60.3251394,34.634513 C61.2278956,34.634513 62.0818124,34.8051957 62.88689,35.1465611 C63.6919675,35.4879265 64.3992636,35.9633925 65.0087783,36.5729589 C65.6187042,37.1825253 66.0944506,37.8895073 66.4360173,38.6939048 C66.777584,39.4983024 66.9483674,40.3516132 66.9483674,41.2538373 C66.9483674,42.1803125 66.777584,43.0398916 66.4360173,43.8325746 C66.0944506,44.6252576 65.6187042,45.3142568 65.0087783,45.8995721 C64.3988524,46.5095495 63.6913506,46.985221 62.8862731,47.3265864 C62.0811955,47.6679519 61.2274843,47.8386346 60.3251394,47.8386346 Z M78.7992593,48.6666667 L78.7992593,47.5938626 L75.4605009,47.5938626 L75.4605009,34.9582038 L80.2422297,34.9582038 L80.2422297,33.8693694 L75.4605009,33.8693694 L75.4605009,24.2412613 L74.3549845,24.2412613 L74.3549845,33.8693694 L70.8811211,33.8693694 L70.8811211,34.9582038 L74.3549845,34.9582038 L74.3549845,48.6666667 L78.7992593,48.6666667 Z M90.9244386,48.6666667 L90.9244386,47.5938626 L87.5856802,47.5938626 L87.5856802,34.9582038 L92.367409,34.9582038 L92.367409,33.8693694 L87.5856802,33.8693694 L87.5856802,24.2412613 L86.4801638,24.2412613 L86.4801638,33.8693694 L83.0063004,33.8693694 L83.0063004,34.9582038 L86.4801638,34.9582038 L86.4801638,48.6666667 L90.9244386,48.6666667 Z M103.106991,41.7020721 L103.106991,40.6132376 L95.8421688,40.6132376 L95.8421688,41.7020721 L103.106991,41.7020721 Z M114.391032,48.6666667 L114.391032,47.5938626 L111.138025,47.5938626 L111.138025,35.2775788 L128.768915,35.2775788 L128.768915,47.5938626 L125.515908,47.5938626 L125.515908,48.6666667 L132.930642,48.6666667 L132.930642,47.5938626 L129.874432,47.5938626 L129.874432,22.1178491 L132.930642,22.1178491 L132.930642,21.045045 L125.515908,21.045045 L125.515908,22.1178491 L128.768915,22.1178491 L128.768915,34.2047748 L111.138025,34.2047748 L111.138025,22.1178491 L114.391032,22.1178491 L114.391032,21.045045 L106.976299,21.045045 L106.976299,22.1178491 L110.032509,22.1178491 L110.032509,47.5938626 L106.976299,47.5938626 L106.976299,48.6666667 L114.391032,48.6666667 Z M143.410299,48.927469 C144.215582,48.927469 144.978607,48.81577 145.699372,48.5923719 C146.420138,48.3689738 147.077669,48.055045 147.671966,47.6505856 C148.239942,47.2724324 148.736869,46.8260473 149.162748,46.3114302 C149.588627,45.7968131 149.919603,45.248491 150.155677,44.666464 C150.155677,45.0392736 150.150433,45.3961557 150.139946,45.7371101 C150.129458,46.0780645 150.124214,46.4349465 150.124214,46.8077562 L150.124214,48.6666667 L154.05583,48.6666667 L154.05583,47.5938626 L151.149531,47.5938626 L151.149531,33.8693694 L150.282145,33.8693694 C150.240195,34.5414133 150.204722,35.2096551 150.175727,35.8740949 C150.146732,36.5385346 150.129561,37.201433 150.124214,37.86279 C149.619987,36.6395467 148.773576,35.6142173 147.584981,34.7868018 C146.396386,33.9593863 145.004826,33.5456785 143.410299,33.5456785 C142.325758,33.5456785 141.317509,33.7508882 140.385552,34.1613077 C139.453595,34.5717272 138.64276,35.1215907 137.953046,35.8108981 C137.242356,36.5002055 136.688262,37.3183727 136.290761,38.2653998 C135.89326,39.2124268 135.69451,40.2093947 135.69451,41.2563035 C135.69451,42.3295186 135.89326,43.3278224 136.290761,44.2512148 C136.688262,45.1746073 137.242356,45.9809572 137.953046,46.6702646 C138.64276,47.3805349 139.453595,47.9343032 140.385552,48.3315695 C141.317509,48.7288359 142.325758,48.927469 143.410299,48.927469 Z M143.410299,47.8386346 C142.495616,47.8386346 141.646532,47.6745284 140.863046,47.3463162 C140.079561,47.0181039 139.398689,46.5625732 138.820432,45.9797241 C138.189119,45.3907095 137.695894,44.6914344 137.340755,43.8818989 C136.985616,43.0723635 136.808046,42.1944932 136.808046,41.2482883 C136.808046,40.34442 136.974923,39.4930617 137.308675,38.6942131 C137.642428,37.8953646 138.10892,37.1938288 138.708153,36.5896059 C139.291757,35.9746959 139.985995,35.4951197 140.790867,35.150877 C141.595739,34.8066343 142.468883,34.634513 143.410299,34.634513 C144.320047,34.634513 145.175815,34.8026267 145.977602,35.1388542 C146.779389,35.4750816 147.485452,35.9426351 148.095789,36.5415146 C148.705715,37.1457376 149.182901,37.8526168 149.527346,38.6621523 C149.871792,39.4716878 150.044015,40.3337331 150.044015,41.2482883 C150.044015,42.1838063 149.871792,43.0510923 149.527346,43.8501464 C149.182901,44.6492005 148.703041,45.3430293 148.087769,45.9316329 C147.482778,46.5305124 146.779389,46.9980659 145.977602,47.3342934 C145.175815,47.6705208 144.320047,47.8386346 143.410299,47.8386346 Z M164.073812,48.6666667 L164.073812,47.5938626 L161.020069,47.5938626 L161.020069,40.2895467 C161.020069,39.4814499 161.191058,38.7299733 161.533036,38.0351168 C161.875014,37.3402604 162.345825,36.7404561 162.945469,36.2357038 C163.522904,35.7531475 164.194419,35.3722199 164.960014,35.0929209 C165.725609,34.8136219 166.535108,34.6739724 167.38851,34.6739724 C168.514591,34.726585 169.38136,35.0827477 169.988818,35.7424606 C170.596277,36.4021734 170.926327,37.1814977 170.978971,38.0804336 L170.978971,47.5938626 L167.883895,47.5938626 L167.883895,48.6666667 L175.13823,48.6666667 L175.13823,47.5938626 L172.084488,47.5938626 L172.084488,40.1008812 C172.105463,39.312103 172.297941,38.5865217 172.661923,37.9241371 C173.025904,37.2617525 173.496818,36.6886655 174.074664,36.2048761 C174.652099,35.7206757 175.318473,35.3444749 176.073786,35.0762739 C176.829099,34.8080729 177.621941,34.6739724 178.452312,34.6739724 C179.578392,34.726585 180.445264,35.0827477 181.052928,35.7424606 C181.660592,36.4021734 181.990746,37.1814977 182.043389,38.0804336 L182.043389,47.5938626 L178.948313,47.5938626 L178.948313,48.6666667 L186.202648,48.6666667 L186.202648,47.5938626 L183.148906,47.5938626 L183.148906,37.9965822 C183.095028,36.6812669 182.657531,35.6158615 181.836414,34.800366 C181.015296,33.9848705 179.891375,33.5771227 178.46465,33.5771227 C177.01695,33.5878097 175.72461,33.9508573 174.587631,34.6662655 C173.450652,35.3816737 172.60311,36.3339414 172.045005,37.5230687 C171.910106,36.3392849 171.432097,35.3856813 170.61098,34.6622579 C169.789862,33.9388345 168.719613,33.5771227 167.400232,33.5771227 C165.899888,33.5878097 164.574646,33.970587 163.424506,34.7254547 C162.274366,35.4803224 161.433404,36.4786261 160.901621,37.720366 C160.890928,37.3196059 160.876327,36.9676563 160.85782,36.6645172 C160.839312,36.3613781 160.824712,36.0094285 160.814019,35.6086684 L160.751093,33.8693694 L157.025527,33.8693694 L157.025527,34.9421734 L159.914553,34.9421734 L159.914553,47.5938626 L156.819477,47.5938626 L156.819477,48.6666667 L164.073812,48.6666667 Z M192.668504,29.8223086 C192.94036,29.8223086 193.181986,29.7206799 193.393383,29.5174226 C193.60478,29.3141653 193.710478,29.0672354 193.710478,28.7766329 C193.710478,28.4864414 193.60478,28.2383812 193.393383,28.0324521 C193.181986,27.8265231 192.94036,27.7235586 192.668504,27.7235586 C192.396649,27.7235586 192.155023,27.8265231 191.943626,28.0324521 C191.732229,28.2383812 191.626531,28.4864414 191.626531,28.7766329 C191.626531,29.0672354 191.732229,29.3141653 191.943626,29.5174226 C192.155023,29.7206799 192.396649,29.8223086 192.668504,29.8223086 Z M196.220716,48.6666667 L196.220716,47.5938626 L193.213243,47.5938626 L193.213243,33.8693694 L188.966382,33.8693694 L188.966382,34.9421734 L192.107726,34.9421734 L192.107726,47.5938626 L188.966382,47.5938626 L188.966382,48.6666667 L196.220716,48.6666667 Z M206.238997,48.6666667 L206.238997,47.5938626 L202.965014,47.5938626 L202.965014,19.0720721 L199.033398,19.0720721 L199.033398,20.1448761 L201.859498,20.1448761 L201.859498,47.5938626 L198.984662,47.5938626 L198.984662,48.6666667 L206.238997,48.6666667 Z M216.92108,48.6666667 L216.92108,47.5938626 L213.582322,47.5938626 L213.582322,34.9582038 L218.36405,34.9582038 L218.36405,33.8693694 L213.582322,33.8693694 L213.582322,24.2412613 L212.476805,24.2412613 L212.476805,33.8693694 L209.002942,33.8693694 L209.002942,34.9582038 L212.476805,34.9582038 L212.476805,48.6666667 L216.92108,48.6666667 Z M228.870438,48.927469 C229.931947,48.927469 230.939168,48.7288359 231.892101,48.3315695 C232.845033,47.9343032 233.676843,47.3805349 234.387532,46.6702646 C235.077246,45.9809572 235.626098,45.1751211 236.034086,44.2527562 C236.442074,43.3303913 236.646068,42.328902 236.646068,41.2482883 C236.646068,40.196036 236.44156,39.1963964 236.032543,38.2493694 C235.623527,37.3023423 235.076013,36.4736937 234.39,35.7634234 C233.677666,35.0794595 232.844519,34.5336036 231.890558,34.1258559 C230.936598,33.7181081 229.929685,33.5142342 228.869821,33.5142342 C227.783635,33.5142342 226.776002,33.7181081 225.846924,34.1258559 C224.917846,34.5336036 224.108245,35.0794595 223.41812,35.7634234 C222.704963,36.4736937 222.150251,37.3023423 221.753984,38.2493694 C221.357717,39.1963964 221.159584,40.196036 221.159584,41.2482883 C221.159584,42.3293131 221.357923,43.3314189 221.754601,44.2546059 C222.151279,45.1777928 222.706813,45.9821903 223.421204,46.6677984 C224.108862,47.3797128 224.917024,47.9343032 225.845691,48.3315695 C226.774357,48.7288359 227.782606,48.927469 228.870438,48.927469 Z M228.853781,47.8386346 C227.926759,47.8386346 227.066673,47.6679519 226.273523,47.3265864 C225.559687,47.0193575 224.929886,46.6033408 224.384117,46.0785361 L224.205306,45.8995721 C223.594969,45.3142568 223.119017,44.6253604 222.777451,43.8328829 C222.435884,43.0404054 222.2651,42.1807235 222.2651,41.2538373 C222.2651,40.3516132 222.435884,39.4981996 222.777451,38.6935966 C223.119017,37.8889935 223.594969,37.1819088 224.205306,36.5723423 C224.790967,35.9631869 225.48027,35.4879265 226.273214,35.1465611 C227.066159,34.8051957 227.926348,34.634513 228.853781,34.634513 C229.756537,34.634513 230.610454,34.8051957 231.415532,35.1465611 C232.220609,35.4879265 232.927905,35.9633925 233.53742,36.5729589 C234.147346,37.1825253 234.623092,37.8895073 234.964659,38.6939048 C235.306226,39.4983024 235.477009,40.3516132 235.477009,41.2538373 C235.477009,42.1803125 235.306226,43.0398916 234.964659,43.8325746 C234.623092,44.6252576 234.147346,45.3142568 233.53742,45.8995721 C232.927494,46.5095495 232.219992,46.985221 231.414915,47.3265864 C230.609837,47.6679519 229.756126,47.8386346 228.853781,47.8386346 Z M246.664098,48.6666667 L246.664098,47.5938626 L243.610355,47.5938626 L243.610355,40.2895467 C243.610355,39.4814499 243.781344,38.7299733 244.123322,38.0351168 C244.4653,37.3402604 244.936111,36.7404561 245.535755,36.2357038 C246.11319,35.7531475 246.784705,35.3722199 247.5503,35.0929209 C248.315895,34.8136219 249.125393,34.6739724 249.978796,34.6739724 C251.104877,34.726585 251.971646,35.0827477 252.579104,35.7424606 C253.186562,36.4021734 253.516613,37.1814977 253.569257,38.0804336 L253.569257,47.5938626 L250.466161,47.5938626 L250.466161,48.6666667 L257.720496,48.6666667 L257.720496,47.5938626 L254.674773,47.5938626 L254.674773,37.9965822 C254.620896,36.6812669 254.183399,35.6158615 253.362281,34.800366 C252.541164,33.9848705 251.417243,33.5771227 249.990518,33.5771227 C248.506214,33.5771227 247.183645,33.9572283 246.022812,34.7174395 C244.861978,35.4776506 244.018343,36.4786261 243.491907,37.720366 C243.481214,37.3196059 243.466613,36.9676563 243.448106,36.6645172 C243.429598,36.3613781 243.414998,36.0094285 243.404305,35.6086684 L243.341379,33.8693694 L239.615813,33.8693694 L239.615813,34.9421734 L242.504839,34.9421734 L242.504839,47.5938626 L239.409763,47.5938626 L239.409763,48.6666667 L246.664098,48.6666667 Z" id="Elliott-Hamilton" fill="#000000" fill-rule="nonzero"></path>
                    <path d="M300.766279,48.6666667 L300.766279,42.5899099 L297.647144,42.5899099 L297.647144,45.5493694 L286.473531,45.5493694 L286.473531,24.1623423 L289.750597,24.1623423 L289.750597,21.045045 L280.985431,21.045045 L280.985431,24.1623423 L283.196464,24.1623423 L283.196464,45.5493694 L280.985431,45.5493694 L280.985431,48.6666667 L300.766279,48.6666667 Z M311.466099,49.0218018 C312.229432,49.0218018 312.913799,48.9363063 313.519201,48.7653153 C314.124603,48.5943243 314.651039,48.3904505 315.09851,48.1536937 C315.51966,47.9432432 315.848682,47.7327928 316.085579,47.5223423 C316.322475,47.3118919 316.454084,47.1672072 316.480406,47.0882883 L316.480406,48.6666667 L322.363333,48.6666667 L322.363333,45.5493694 L319.362645,45.5493694 L319.362645,33.8693694 L316.638337,33.8693694 C316.638337,34.185045 316.618596,34.5072973 316.579113,34.8361261 C316.53963,35.164955 316.506728,35.4609009 316.480406,35.723964 C316.269831,35.2767568 315.743395,34.7966667 314.901097,34.2836937 C314.058798,33.7707207 312.913799,33.5142342 311.466099,33.5142342 C310.360583,33.5142342 309.320871,33.7246847 308.346963,34.1455856 C307.373056,34.5664865 306.530758,35.1320721 305.820069,35.8423423 C305.10938,36.5526126 304.550041,37.3812613 304.142053,38.3282883 C303.734064,39.2753153 303.53007,40.2618018 303.53007,41.2877477 C303.53007,42.34 303.734064,43.3330631 304.142053,44.2669369 C304.550041,45.2008108 305.10938,46.0228829 305.820069,46.7331532 C306.530758,47.4434234 307.373056,48.0024324 308.346963,48.4101802 C309.320871,48.8179279 310.360583,49.0218018 311.466099,49.0218018 Z M311.466099,45.8255856 C310.887019,45.8255856 310.347422,45.7400901 309.847307,45.5690991 C309.347193,45.3981081 308.912883,45.1679279 308.544377,44.8785586 C308.017941,44.4576577 307.603372,43.9315315 307.300671,43.3001802 C306.99797,42.6688288 306.84662,41.9848649 306.84662,41.2482883 C306.84662,40.6169369 306.945327,40.0381982 307.14274,39.5120721 C307.340154,38.9859459 307.623113,38.5255856 307.991619,38.130991 C308.386446,37.6837838 308.886561,37.3352252 309.491963,37.0853153 C310.097365,36.8354054 310.75541,36.7104505 311.466099,36.7104505 C312.124145,36.7104505 312.722966,36.8156757 313.262563,37.0261261 C313.802161,37.2365766 314.282534,37.5259459 314.703683,37.8942342 C315.124832,38.2888288 315.460435,38.7754955 315.710493,39.3542342 C315.96055,39.932973 316.085579,40.5643243 316.085579,41.2482883 C316.085579,41.9322523 315.96055,42.5636036 315.710493,43.1423423 C315.460435,43.7210811 315.111671,44.2209009 314.6642,44.6418018 C314.269373,45.0100901 313.802161,45.2994595 313.262563,45.5099099 C312.722966,45.7203604 312.124145,45.8255856 311.466099,45.8255856 Z M345.776592,49.5742342 C346.829465,47.4697297 347.888918,45.3783784 348.954952,43.3001802 C350.020985,41.221982 351.080439,39.1174775 352.133312,36.9866667 L355.133999,36.9866667 L355.133999,33.8693694 L346.684695,33.8693694 L346.684695,36.9866667 L348.895728,36.9866667 C348.290326,38.1441441 347.717826,39.295045 347.178229,40.4393694 C346.638632,41.5836937 346.171419,42.7477477 345.776592,43.9315315 C345.381765,42.7477477 344.907972,41.5836937 344.355214,40.4393694 C343.802455,39.295045 343.236536,38.1441441 342.657456,36.9866667 L344.907972,36.9866667 L344.907972,33.8693694 L336.142806,33.8693694 L336.142806,36.9866667 L338.788149,36.9866667 L338.906597,37.1445045 C338.301195,38.2230631 337.735276,39.2555856 337.208839,40.2420721 C336.682403,41.2285586 336.024358,42.4583784 335.234703,43.9315315 C334.971485,43.1423423 334.497692,42.0769369 333.813325,40.7353153 C333.128957,39.3936937 332.497234,38.1441441 331.918154,36.9866667 L333.300049,36.9866667 L333.300049,33.8693694 L325.127124,33.8693694 L325.127124,36.9866667 L328.641087,36.9866667 C329.720282,39.0911712 330.786315,41.1890991 331.839188,43.2804505 C332.892061,45.3718018 333.958095,47.4697297 335.037289,49.5742342 L340.525389,39.1963964 L345.776592,49.5742342 Z" id="Law" fill="#1C3156" fill-rule="nonzero"></path>
                    <rect id="Rectangle" fill="#1C3156" x="268.416762" y="0" width="3.29022753" height="73"></rect>
                </g>
            </g>
        </g>
    </g>
</svg>