<svg class="styles_header__GwPsn styles_container__DSN8I styles_logo__uFl_4" width="767.775px" height="214.843075px" viewBox="0 0 767.775 214.843075" version="1.1" xmlns="http://www.w3.org/2000/svg"><g id="Page-1" stroke="none" stroke-width="1" fill="none" fill-rule="evenodd"><g id="CMYK-Primary-Logo_Terralex" transform="translate(0.000000, -0.000000)" fill-rule="nonzero"><g id="Group" transform="translate(241.775000, 64.703437)" fill="#41658B"><polygon id="Path" points="35.1 12.8 35.1 85.5 20.4 85.5 20.4 12.8 2.84217094e-14 12.8 2.84217094e-14 0 55.5 0 55.5 12.8"></polygon><polygon id="Path" points="67 20.6 117.9 20.6 117.9 30.3 81.7 30.3 81.7 47.5 112.4 47.5 112.4 57.1 81.7 57.1 81.7 75.6 117.9 75.6 117.9 85.3 67 85.3 67 20.4"></polygon><path d="M146.4,61.3 L146.4,85.5 L131.7,85.5 L131.7,20.6 L158.4,20.6 C177.5,20.6 187,27.1 187,40.1 L187,41.8 C187,50.9 182.4,56.8 173.1,59.6 L187,85.6 L171.1,85.6 L158.8,61.4 L146.3,61.4 L146.4,61.3 Z M146.4,51.6 L159,51.6 C167.8,51.6 172.2,48.2 172.2,41.5 L172.2,40.6 C172.2,33.8 167.8,30.5 159,30.5 L146.4,30.5 L146.4,51.7 L146.4,51.6 Z" id="Shape"></path><path d="M216.1,61.3 L216.1,85.5 L201.4,85.5 L201.4,20.6 L228.1,20.6 C247.2,20.6 256.7,27.1 256.7,40.1 L256.7,41.8 C256.7,50.9 252.1,56.8 242.8,59.6 L256.7,85.6 L240.8,85.6 L228.5,61.4 L216,61.4 L216.1,61.3 Z M216.1,51.6 L228.7,51.6 C237.5,51.6 241.9,48.2 241.9,41.5 L241.9,40.6 C241.9,33.8 237.5,30.5 228.7,30.5 L216.1,30.5 L216.1,51.7 L216.1,51.6 Z" id="Shape"></path><path d="M287.7,20.3 L308,20.3 L330.5,85.5 L314.7,85.5 L310,70.7 L285.9,70.7 L281.2,85.5 L265.3,85.5 L287.8,20.3 L287.7,20.3 Z M297.9,33 L288.9,60.9 L306.8,60.9 L297.9,33 L297.9,33 Z" id="Shape"></path><polygon id="Path" points="389.5 85.5 341.8 85.5 341.8 0 356.5 0 356.5 72.7 389.5 72.7"></polygon><polygon id="Path" points="400.6 20.6 451.5 20.6 451.5 30.3 415.3 30.3 415.3 47.5 446 47.5 446 57.1 415.3 57.1 415.3 75.6 451.5 75.6 451.5 85.3 400.6 85.3 400.6 20.4"></polygon><polygon id="Path" points="461 85.5 483 51.8 461 20.6 478.1 20.6 493.6 44 508.9 20.6 526 20.6 504 51.7 526 85.5 509.7 85.5 493.5 59.5 477.5 85.5 461.1 85.5"></polygon></g><g id="Group" transform="translate(-0.000000, 0.000000)"><path d="M130.675,148.203437 C124.175,150.303437 117.575,152.003437 110.875,153.203437 C115.975,157.103437 121.375,160.703437 126.875,163.903437 C128.475,158.803437 129.675,153.503437 130.675,148.203437 Z" id="Path" fill="#41658B"></path><path d="M50.975,45.2034374 C69.875,44.1034374 88.975,39.5034374 106.275,32.0034374 C104.875,30.1034374 103.375,28.2034374 101.875,26.4034374 C93.775,16.8034374 84.975,9.60343739 75.775,4.80343739 C68.975,6.90343739 62.375,9.60343739 56.075,13.1034374 C52.475,22.5034374 50.575,33.3034374 50.975,45.3034374 L50.975,45.2034374 Z" id="Path" fill="#41658B"></path><path d="M140.575,11.2034374 C142.275,9.80343739 143.875,8.40343739 145.375,6.90343739 C136.675,3.60343739 127.575,1.50343739 118.375,0.603437391 C125.975,3.00343739 133.475,6.50343739 140.575,11.2034374 Z" id="Path" fill="#41658B"></path><path d="M123.875,65.4034374 C121.075,57.7034374 117.775,50.3034374 113.775,43.4034374 C94.875,53.1034374 73.475,58.4034374 52.275,58.7034374 C54.375,72.2034374 58.975,85.6034374 65.475,98.4034374 C86.575,92.0034374 106.975,80.4034374 123.975,65.4034374 L123.875,65.4034374 Z" id="Path" fill="#679CAE"></path><path d="M128.375,80.2034374 C111.975,94.2034374 92.275,104.403437 71.575,109.303437 C78.575,120.803437 87.175,131.503437 96.875,140.903437 C109.075,139.503437 121.175,136.603437 132.775,132.503437 C134.175,115.103437 132.675,97.2034374 128.375,80.2034374 Z" id="Path" fill="#41658B"></path><path d="M152.575,31.6034374 C152.375,31.3034374 152.175,31.0034374 151.975,30.8034374 C149.575,27.4034374 147.075,24.2034374 144.475,21.3034374 C137.875,27.7034374 130.575,33.4034374 122.775,38.3034374 C126.875,43.9034374 130.475,49.9034374 133.475,56.2034374 C140.775,48.6034374 147.175,40.4034374 152.575,31.7034374 L152.575,31.6034374 Z" id="Path" fill="#679CAE"></path><path d="M158.475,184.203437 C155.375,183.903437 152.275,183.503437 149.075,182.903437 C143.275,181.903437 137.675,180.303437 132.175,178.403437 C130.275,181.903437 128.175,185.303437 125.975,188.503437 C118.775,198.903437 110.375,207.303437 101.075,213.603437 C102.175,214.003437 103.175,214.403437 104.275,214.803437 C115.575,215.103437 126.975,213.703437 137.975,210.503437 C142.975,206.003437 147.775,200.703437 152.075,194.403437 C154.375,191.103437 156.475,187.703437 158.475,184.103437 L158.475,184.203437 Z" id="Path" fill="#98AF48"></path><path d="M192.175,105.203437 C191.475,106.103437 190.775,107.003437 190.075,107.903437 C190.875,132.803437 185.075,158.003437 172.675,179.203437 C177.675,179.703437 182.575,179.703437 187.275,179.203437 C214.275,149.203437 221.475,107.703437 208.775,71.6034374 C205.775,83.0034374 200.275,94.4034374 192.175,105.103437 L192.175,105.203437 Z" id="Path" fill="#41658B"></path><path d="M111.975,25.5034374 C112.775,26.4034374 113.675,27.3034374 114.475,28.2034374 C122.575,24.1034374 130.075,19.4034374 137.075,14.0034374 C129.775,7.60343739 121.875,3.00343739 113.775,0.203437391 C102.475,-0.496562609 90.975,0.603437391 79.975,3.60343739 C91.375,8.30343739 102.175,15.6034374 111.975,25.6034374 L111.975,25.5034374 Z" id="Path" fill="#98AF48"></path><path d="M156.575,24.6034374 C158.275,21.3034374 159.875,17.9034374 161.275,14.5034374 C158.875,13.1034374 156.475,11.8034374 154.075,10.7034374 C152.275,12.9034374 150.475,15.1034374 148.575,17.2034374 C151.375,19.5034374 153.975,22.0034374 156.575,24.6034374 Z" id="Path" fill="#679CAE"></path><path d="M175.775,108.803437 C175.275,85.3034374 169.675,62.1034374 159.175,42.5034374 C153.875,52.4034374 147.075,61.6034374 139.275,69.9034374 C145.775,88.0034374 148.375,107.503437 146.975,126.703437 C157.375,121.803437 167.175,115.803437 175.775,108.803437 Z" id="Path" fill="#98AF48"></path><path d="M175.575,123.003437 C166.375,130.903437 156.075,137.503437 144.975,142.603437 C143.175,151.703437 140.475,160.603437 136.775,169.103437 C143.275,172.203437 149.975,174.603437 156.775,176.403437 C158.475,176.903437 160.175,177.303437 161.875,177.603437 C169.775,161.003437 174.375,142.203437 175.575,123.003437 Z" id="Path" fill="#98AF48"></path><path d="M15.875,108.903437 C10.275,107.403437 5.075,105.403437 0.075,103.003437 C-0.025,106.503437 -0.025,110.003437 0.075,113.603437 C5.275,119.003437 11.675,123.903437 19.175,128.003437 C17.575,121.703437 16.475,115.403437 15.775,109.003437 L15.875,108.903437 Z" id="Path" fill="#41658B"></path><path d="M52.875,14.8034374 C51.175,15.8034374 49.475,16.9034374 47.775,18.0034374 C43.675,23.7034374 40.075,30.2034374 37.175,37.6034374 C36.175,40.1034374 35.275,42.6034374 34.475,45.2034374 C37.675,45.4034374 40.975,45.4034374 44.275,45.4034374 C45.475,34.2034374 48.475,24.0034374 52.975,14.8034374 L52.875,14.8034374 Z" id="Path" fill="#41658B"></path><path d="M169.375,184.603437 C167.175,188.003437 164.775,191.303437 162.175,194.503437 C158.875,198.503437 155.375,202.103437 151.675,205.403437 C163.175,200.203437 173.975,192.903437 183.375,183.403437 C183.375,183.403437 183.475,183.303437 183.575,183.203437 C178.975,184.003437 174.275,184.503437 169.375,184.603437 L169.375,184.603437 Z" id="Path" fill="#41658B"></path><path d="M64.675,199.303437 C44.275,183.803437 29.575,161.403437 21.775,136.803437 C13.375,131.303437 6.275,124.903437 0.475,117.703437 C2.775,141.703437 13.075,165.003437 31.475,183.403437 C48.075,200.003437 68.775,210.103437 90.375,213.503437 C81.575,210.303437 72.975,205.503437 64.675,199.203437 L64.675,199.303437 Z" id="Path" fill="#41658B"></path><path d="M25.175,44.5034374 C25.875,43.0034374 26.575,41.4034374 27.275,39.9034374 C28.975,36.4034374 30.875,33.1034374 32.875,29.9034374 C32.375,30.4034374 31.875,30.9034374 31.375,31.3034374 C27.475,35.2034374 23.875,39.4034374 20.675,43.8034374 C22.175,44.0034374 23.675,44.2034374 25.075,44.4034374 L25.175,44.5034374 Z" id="Path" fill="#41658B"></path><path d="M14.375,53.6034374 C6.175,67.9034374 1.475,83.6034374 0.275,99.5034374 C4.975,101.103437 9.975,102.303437 15.375,103.103437 C14.375,86.9034374 16.175,70.7034374 21.075,55.4034374 C18.875,54.9034374 16.675,54.3034374 14.475,53.6034374 L14.375,53.6034374 Z" id="Path" fill="#679CAE"></path><path d="M163.775,32.9034374 C177.975,50.9034374 186.475,73.1034374 189.175,96.1034374 C189.375,95.9034374 189.675,95.6034374 189.875,95.4034374 C197.975,86.3034374 203.675,76.7034374 207.075,67.2034374 C201.875,54.2034374 193.975,42.0034374 183.375,31.5034374 C178.775,26.9034374 173.875,22.8034374 168.675,19.2034374 C167.375,23.9034374 165.675,28.5034374 163.775,33.0034374 L163.775,32.9034374 Z" id="Path" fill="#41658B"></path><path d="M29.375,104.003437 C29.375,104.003437 29.375,104.003437 29.475,104.003437 C37.175,104.003437 44.875,103.203437 52.675,101.603437 C47.075,87.9034374 43.875,73.3034374 43.675,58.5034374 C39.475,58.3034374 35.375,57.9034374 31.275,57.3034374 C28.175,72.2034374 27.675,88.2034374 29.475,104.003437 L29.375,104.003437 Z" id="Path" fill="#679CAE"></path><path d="M78.075,142.003437 C69.875,132.903437 62.775,122.703437 57.275,111.803437 C49.975,112.603437 42.675,112.803437 35.275,112.303437 C33.675,112.203437 31.975,112.003437 30.375,111.803437 C31.675,119.803437 33.575,127.703437 36.075,135.403437 C49.175,139.803437 63.475,142.003437 77.975,142.003437 L78.075,142.003437 Z" id="Path" fill="#41658B"></path><path d="M74.475,197.003437 C81.875,203.603437 89.575,208.703437 97.375,212.203437 C104.175,206.203437 110.475,198.703437 115.775,189.403437 C118.475,184.803437 120.875,179.903437 122.875,174.803437 C111.675,169.803437 101.075,163.103437 91.675,155.203437 C73.975,155.803437 56.275,153.003437 40.075,146.403437 C47.975,166.003437 59.575,183.703437 74.475,197.003437 L74.475,197.003437 Z" id="Path" fill="#41658B"></path></g></g></g></svg>